<svg xmlns="http://www.w3.org/2000/svg" width="760" height="520" viewBox="0 0 760 520" font-family="Noto Sans JP, sans-serif">
  <rect width="760" height="520" fill="#ffffff"/>
  <line x1="110" y1="40" x2="110" y2="430" stroke="#333" stroke-width="2"/>
  <line x1="110" y1="430" x2="700" y2="430" stroke="#333" stroke-width="2"/>
  <!-- scatter points -->
  <g fill="#1f5f99" opacity="0.7">
    <circle cx="180" cy="360" r="7"/><circle cx="230" cy="330" r="7"/>
    <circle cx="260" cy="300" r="7"/><circle cx="300" cy="340" r="7"/>
    <circle cx="330" cy="280" r="7"/><circle cx="360" cy="310" r="7"/>
    <circle cx="400" cy="250" r="7"/><circle cx="430" cy="290" r="7"/>
    <circle cx="470" cy="220" r="7"/><circle cx="500" cy="260" r="7"/>
    <circle cx="540" cy="200" r="7"/><circle cx="580" cy="240" r="7"/>
    <circle cx="620" cy="180" r="7"/><circle cx="650" cy="210" r="7"/>
  </g>
  <!-- regression line -->
  <line x1="150" y1="360" x2="660" y2="190" stroke="#c00000" stroke-width="3"/>
  <g fill="#222" font-size="22" text-anchor="middle">
    <text x="400" y="475">潜在的態度（IAT D）</text>
  </g>
  <text x="40" y="235" font-size="22" fill="#222" transform="rotate(-90 40 235)" text-anchor="middle">顕在的態度</text>
  <text x="560" y="150" font-size="22" fill="#c00000">r = .18</text>
</svg>
